<svg xmlns="http://www.w3.org/2000/svg" viewBox="0 0 32 32" width="32" height="32" role="img" aria-label="">
  <defs>
    <!-- One tapered ray, drawn pointing up from the centre; the burst is this
         shape rotated. Two ray lengths keep it from reading as a plain asterisk. -->
    <path id="ray-long" d="M16 2.6c1.05 4.6 1.55 8.2 1.5 10.9-.45 1.4-2.55 1.4-3 0-.05-2.7.45-6.3 1.5-10.9z" />
    <path id="ray-short" d="M16 6.4c.8 3.3 1.18 5.9 1.15 7.8-.34 1.05-1.96 1.05-2.3 0-.03-1.9.35-4.5 1.15-7.8z" />
  </defs>
  <g fill="#d97757">
    <use href="#ray-long" transform="rotate(0 16 16)" />
    <use href="#ray-short" transform="rotate(45 16 16)" />
    <use href="#ray-long" transform="rotate(90 16 16)" />
    <use href="#ray-short" transform="rotate(135 16 16)" />
    <use href="#ray-long" transform="rotate(180 16 16)" />
    <use href="#ray-short" transform="rotate(225 16 16)" />
    <use href="#ray-long" transform="rotate(270 16 16)" />
    <use href="#ray-short" transform="rotate(315 16 16)" />
  </g>
  <circle cx="16" cy="16" r="2.1" fill="#d97757" />
</svg>
